3umbra-10.ufo
<glyph name="numbersign" format="1">
  <advance width="600"/>
  <unicode hex="0023"/>
  <outline>
    <contour>
      <point x="-346" y="154" type="line"/>
      <point x="-346" y="249" type="line"/>
      <point x="-223" y="249" type="line"/>
      <point x="-209" y="329" type="line"/>
      <point x="-296" y="329" type="line"/>
      <point x="-296" y="424" type="line"/>
      <point x="-192" y="424" type="line"/>
      <point x="-171" y="539" type="line"/>
      <point x="-66" y="539" type="line"/>
      <point x="-87" y="424" type="line"/>
      <point x="-7" y="424" type="line"/>
      <point x="14" y="539" type="line"/>
      <point x="119" y="539" type="line"/>
      <point x="98" y="424" type="line"/>
      <point x="204" y="424" type="line"/>
      <point x="204" y="329" type="line"/>
      <point x="81" y="329" type="line"/>
      <point x="67" y="249" type="line"/>
      <point x="154" y="249" type="line"/>
      <point x="154" y="154" type="line"/>
      <point x="50" y="154" type="line"/>
      <point x="29" y="39" type="line"/>
      <point x="-76" y="39" type="line"/>
      <point x="-55" y="154" type="line"/>
      <point x="-135" y="154" type="line"/>
      <point x="-156" y="39" type="line"/>
      <point x="-261" y="39" type="line"/>
      <point x="-240" y="154" type="line"/>
    </contour>
    <contour>
      <point x="-38" y="249" type="line"/>
      <point x="-24" y="329" type="line"/>
      <point x="-104" y="329" type="line"/>
      <point x="-118" y="249" type="line"/>
    </contour>
  </outline>
</glyph>
<glyph name="period" format="1">
  <advance width="291"/>
  <unicode hex="002E"/>
  <outline>
    <contour>
      <point x="-221" y="11" type="line"/>
      <point x="-326" y="116" type="line"/>
      <point x="-221" y="222" type="line"/>
      <point x="-115" y="116" type="line"/>
    </contour>
  </outline>
</glyph>
<glyph name="zero" format="1">
  <advance width="510"/>
  <unicode hex="0030"/>
  <outline>
    <contour>
      <point x="-336" y="289" type="curve" smooth="yes"/>
      <point x="-336" y="438"/>
      <point x="-266" y="559"/>
      <point x="-111" y="559" type="curve" smooth="yes"/>
      <point x="44" y="559"/>
      <point x="114" y="438"/>
      <point x="114" y="289" type="curve" smooth="yes"/>
      <point x="114" y="140"/>
      <point x="44" y="19"/>
      <point x="-111" y="19" type="curve" smooth="yes"/>
      <point x="-266" y="19"/>
      <point x="-336" y="140"/>
    </contour>
    <contour>
      <point x="-191" y="289" type="curve" smooth="yes"/>
      <point x="-191" y="196"/>
      <point x="-163" y="144"/>
      <point x="-111" y="144" type="curve" smooth="yes"/>
      <point x="-59" y="144"/>
      <point x="-31" y="196"/>
      <point x="-31" y="289" type="curve" smooth="yes"/>
      <point x="-31" y="382"/>
      <point x="-59" y="434"/>
      <point x="-111" y="434" type="curve" smooth="yes"/>
      <point x="-163" y="434"/>
      <point x="-191" y="382"/>
    </contour>
  </outline>
</glyph>
<glyph name="five" format="1">
  <advance width="449"/>
  <unicode hex="0035"/>
  <outline>
    <contour>
      <point x="-301" y="278" type="line"/>
      <point x="-271" y="539" type="line"/>
      <point x="29" y="539" type="line"/>
      <point x="19" y="424" type="line"/>
      <point x="-164" y="424" type="line"/>
      <point x="-170" y="373" type="line"/>
      <point x="-55" y="372"/>
      <point x="48" y="317"/>
      <point x="48" y="191" type="curve" smooth="yes"/>
      <point x="48" y="64"/>
      <point x="-67" y="24"/>
      <point x="-154" y="24" type="curve" smooth="yes"/>
      <point x="-231" y="24"/>
      <point x="-301" y="59"/>
      <point x="-341" y="96" type="curve"/>
      <point x="-321" y="221" type="line"/>
      <point x="-281" y="183"/>
      <point x="-232" y="149"/>
      <point x="-174" y="149" type="curve" smooth="yes"/>
      <point x="-126" y="149"/>
      <point x="-97" y="168"/>
      <point x="-97" y="219" type="curve" smooth="yes"/>
      <point x="-97" y="277"/>
      <point x="-176" y="278"/>
      <point x="-224" y="278" type="curve" smooth="yes"/>
    </contour>
  </outline>
</glyph>
<glyph name="eight" format="1">
  <advance width="464"/>
  <unicode hex="0038"/>
  <outline>
    <contour>
      <point x="-206" y="191" type="curve" smooth="yes"/>
      <point x="-206" y="163"/>
      <point x="-182" y="144"/>
      <point x="-134" y="144" type="curve" smooth="yes"/>
      <point x="-86" y="144"/>
      <point x="-62" y="163"/>
      <point x="-62" y="191" type="curve" smooth="yes"/>
      <point x="-62" y="219"/>
      <point x="-86" y="239"/>
      <point x="-134" y="239" type="curve" smooth="yes"/>
      <point x="-182" y="239"/>
      <point x="-206" y="219"/>
    </contour>
    <contour>
      <point x="-186" y="393" type="curve" smooth="yes"/>
      <point x="-186" y="365"/>
      <point x="-162" y="354"/>
      <point x="-134" y="354" type="curve" smooth="yes"/>
      <point x="-106" y="354"/>
      <point x="-82" y="365"/>
      <point x="-82" y="393" type="curve" smooth="yes"/>
      <point x="-82" y="421"/>
      <point x="-106" y="434"/>
      <point x="-134" y="434" type="curve" smooth="yes"/>
      <point x="-162" y="434"/>
      <point x="-186" y="421"/>
    </contour>
    <contour>
      <point x="-316" y="403" type="curve" smooth="yes"/>
      <point x="-316" y="480"/>
      <point x="-251" y="549"/>
      <point x="-134" y="549" type="curve" smooth="yes"/>
      <point x="-17" y="549"/>
      <point x="48" y="480"/>
      <point x="48" y="403" type="curve" smooth="yes"/>
      <point x="48" y="356"/>
      <point x="23" y="320"/>
      <point x="-23" y="299" type="curve"/>
      <point x="33" y="280"/>
      <point x="68" y="243"/>
      <point x="68" y="181" type="curve" smooth="yes"/>
      <point x="68" y="74"/>
      <point x="-17" y="29"/>
      <point x="-134" y="29" type="curve" smooth="yes"/>
      <point x="-251" y="29"/>
      <point x="-336" y="84"/>
      <point x="-336" y="181" type="curve" smooth="yes"/>
      <point x="-336" y="244"/>
      <point x="-300" y="282"/>
      <point x="-242" y="300" type="curve"/>
      <point x="-290" y="323"/>
      <point x="-316" y="361"/>
    </contour>
  </outline>
</glyph>
<glyph name="equal" format="1">
  <advance width="560"/>
  <unicode hex="003D"/>
  <outline>
    <contour>
      <point x="-281" y="149" type="line"/>
      <point x="-281" y="259" type="line"/>
      <point x="109" y="259" type="line"/>
      <point x="109" y="149" type="line"/>
    </contour>
    <contour>
      <point x="-281" y="329" type="line"/>
      <point x="-281" y="439" type="line"/>
      <point x="109" y="439" type="line"/>
      <point x="109" y="329" type="line"/>
    </contour>
  </outline>
</glyph>
<glyph name="at" format="1">
  <advance width="700"/>
  <unicode hex="0040"/>
  <outline>
    <contour>
      <point x="314" y="259" type="curve" smooth="yes"/>
      <point x="314" y="129"/>
      <point x="267" y="27"/>
      <point x="140" y="27" type="curve" smooth="yes"/>
      <point x="93" y="27"/>
      <point x="48" y="38"/>
      <point x="33" y="84" type="curve"/>
      <point x="9" y="57"/>
      <point x="-23" y="39"/>
      <point x="-59" y="39" type="curve" smooth="yes"/>
      <point x="-166" y="39"/>
      <point x="-211" y="134"/>
      <point x="-211" y="221" type="curve" smooth="yes"/>
      <point x="-211" y="308"/>
      <point x="-156" y="404"/>
      <point x="-69" y="404" type="curve" smooth="yes"/>
      <point x="-32" y="404"/>
      <point x="1" y="387"/>
      <point x="28" y="361" type="curve"/>
      <point x="28" y="394" type="line"/>
      <point x="163" y="394" type="line"/>
      <point x="163" y="149" type="line" smooth="yes"/>
      <point x="163" y="121"/>
      <point x="165" y="112"/>
      <point x="180" y="112" type="curve" smooth="yes"/>
      <point x="208" y="112"/>
      <point x="229" y="179"/>
      <point x="229" y="259" type="curve" smooth="yes"/>
      <point x="229" y="432"/>
      <point x="111" y="489"/>
      <point x="-11" y="489" type="curve" smooth="yes"/>
      <point x="-123" y="489"/>
      <point x="-261" y="402"/>
      <point x="-261" y="229" type="curve" smooth="yes"/>
      <point x="-261" y="26"/>
      <point x="-133" y="-26"/>
      <point x="19" y="-26" type="curve"/>
      <point x="19" y="-91" type="line"/>
      <point x="-206" y="-91"/>
      <point x="-346" y="10"/>
      <point x="-346" y="229" type="curve" smooth="yes"/>
      <point x="-346" y="418"/>
      <point x="-196" y="559"/>
      <point x="-11" y="559" type="curve" smooth="yes"/>
      <point x="184" y="559"/>
      <point x="314" y="428"/>
    </contour>
    <contour>
      <point x="28" y="168" type="curve"/>
      <point x="28" y="275" type="line"/>
      <point x="11" y="293"/>
      <point x="-13" y="299"/>
      <point x="-29" y="299" type="curve" smooth="yes"/>
      <point x="-57" y="299"/>
      <point x="-76" y="269"/>
      <point x="-76" y="221" type="curve" smooth="yes"/>
      <point x="-76" y="173"/>
      <point x="-57" y="144"/>
      <point x="-29" y="144" type="curve" smooth="yes"/>
      <point x="-13" y="144"/>
      <point x="11" y="151"/>
    </contour>
  </outline>
</glyph>
<glyph name="A" format="1">
  <advance width="580"/>
  <unicode hex="0041"/>
  <outline>
    <contour>
      <point x="-356" y="39" type="line"/>
      <point x="-156" y="539" type="line"/>
      <point x="4" y="539" type="line"/>
      <point x="204" y="39" type="line"/>
      <point x="54" y="39" type="line"/>
      <point x="23" y="124" type="line"/>
      <point x="-175" y="124" type="line"/>
      <point x="-206" y="39" type="line"/>
    </contour>
    <contour>
      <point x="-76" y="400" type="line"/>
      <point x="-134" y="239" type="line"/>
      <point x="-18" y="239" type="line"/>
    </contour>
  </outline>
</glyph>
<glyph name="C" format="1">
  <advance width="515"/>
  <unicode hex="0043"/>
  <outline>
    <contour>
      <point x="-191" y="289" type="curve" smooth="yes"/>
      <point x="-191" y="196"/>
      <point x="-118" y="144"/>
      <point x="-61" y="144" type="curve" smooth="yes"/>
      <point x="0" y="144"/>
      <point x="44" y="167"/>
      <point x="69" y="200" type="curve"/>
      <point x="109" y="73" type="line"/>
      <point x="77" y="41"/>
      <point x="30" y="19"/>
      <point x="-51" y="19" type="curve" smooth="yes"/>
      <point x="-226" y="19"/>
      <point x="-336" y="140"/>
      <point x="-336" y="289" type="curve" smooth="yes"/>
      <point x="-336" y="438"/>
      <point x="-226" y="559"/>
      <point x="-51" y="559" type="curve" smooth="yes"/>
      <point x="30" y="559"/>
      <point x="77" y="537"/>
      <point x="109" y="505" type="curve"/>
      <point x="69" y="378" type="line"/>
      <point x="44" y="411"/>
      <point x="0" y="434"/>
      <point x="-61" y="434" type="curve" smooth="yes"/>
      <point x="-118" y="434"/>
      <point x="-191" y="382"/>
    </contour>
  </outline>
</glyph>
<glyph name="M" format="1">
  <advance width="690"/>
  <unicode hex="004D"/>
  <outline>
    <contour>
      <point x="-321" y="39" type="line"/>
      <point x="-321" y="539" type="line"/>
      <point x="-181" y="539" type="line"/>
      <point x="-21" y="269" type="line"/>
      <point x="139" y="539" type="line"/>
      <point x="279" y="539" type="line"/>
      <point x="279" y="39" type="line"/>
      <point x="139" y="39" type="line"/>
      <point x="139" y="299" type="line"/>
      <point x="-21" y="29" type="line"/>
      <point x="-181" y="299" type="line"/>
      <point x="-181" y="39" type="line"/>
    </contour>
  </outline>
</glyph>
<glyph name="T" format="1">
  <advance width="480"/>
  <unicode hex="0054"/>
  <outline>
    <contour>
      <point x="-346" y="419" type="line"/>
      <point x="-346" y="539" type="line"/>
      <point x="94" y="539" type="line"/>
      <point x="94" y="419" type="line"/>
      <point x="-56" y="419" type="line"/>
      <point x="-56" y="39" type="line"/>
      <point x="-196" y="39" type="line"/>
      <point x="-196" y="419" type="line"/>
    </contour>
  </outline>
</glyph>
<glyph name="Y" format="1">
  <advance width="540"/>
  <unicode hex="0059"/>
  <outline>
    <contour>
      <point x="-26" y="219" type="line"/>
      <point x="-26" y="39" type="line"/>
      <point x="-166" y="39" type="line"/>
      <point x="-166" y="219" type="line"/>
      <point x="-356" y="539" type="line"/>
      <point x="-196" y="539" type="line"/>
      <point x="-96" y="339" type="line"/>
      <point x="4" y="539" type="line"/>
      <point x="164" y="539" type="line"/>
    </contour>
  </outline>
</glyph>
<glyph name="c" format="1">
  <advance width="404"/>
  <unicode hex="0063"/>
  <outline>
    <contour>
      <point x="-331" y="231" type="curve" smooth="yes"/>
      <point x="-331" y="358"/>
      <point x="-236" y="434"/>
      <point x="-119" y="434" type="curve" smooth="yes"/>
      <point x="-81" y="434"/>
      <point x="-33" y="423"/>
      <point x="-7" y="399" type="curve"/>
      <point x="-47" y="296" type="line"/>
      <point x="-59" y="311"/>
      <point x="-86" y="324"/>
      <point x="-109" y="324" type="curve" smooth="yes"/>
      <point x="-167" y="324"/>
      <point x="-196" y="279"/>
      <point x="-196" y="231" type="curve" smooth="yes"/>
      <point x="-196" y="183"/>
      <point x="-167" y="139"/>
      <point x="-109" y="139" type="curve" smooth="yes"/>
      <point x="-86" y="139"/>
      <point x="-59" y="153"/>
      <point x="-47" y="167" type="curve"/>
      <point x="-7" y="64" type="line"/>
      <point x="-33" y="40"/>
      <point x="-81" y="29"/>
      <point x="-119" y="29" type="curve" smooth="yes"/>
      <point x="-236" y="29"/>
      <point x="-331" y="114"/>
    </contour>
  </outline>
</glyph>
<glyph name="f" format="1">
  <advance width="333"/>
  <unicode hex="0066"/>
  <outline>
    <contour>
      <point x="-167" y="39" type="line"/>
      <point x="-302" y="39" type="line"/>
      <point x="-302" y="324" type="line"/>
      <point x="-346" y="324" type="line"/>
      <point x="-346" y="424" type="line"/>
      <point x="-302" y="424" type="line"/>
      <point x="-302" y="427" type="line" smooth="yes"/>
      <point x="-302" y="524"/>
      <point x="-217" y="579"/>
      <point x="-140" y="579" type="curve" smooth="yes"/>
      <point x="-73" y="579"/>
      <point x="-43" y="564"/>
      <point x="7" y="517" type="curve"/>
      <point x="-33" y="417" type="line"/>
      <point x="-73" y="455"/>
      <point x="-102" y="469"/>
      <point x="-120" y="469" type="curve" smooth="yes"/>
      <point x="-143" y="469"/>
      <point x="-160" y="460"/>
      <point x="-165" y="424" type="curve"/>
      <point x="-81" y="424" type="line"/>
      <point x="-81" y="324" type="line"/>
      <point x="-167" y="324" type="line"/>
    </contour>
  </outline>
</glyph>
<glyph name="n" format="1">
  <advance width="474"/>
  <unicode hex="006E"/>
  <outline>
    <contour>
      <point x="-326" y="39" type="line"/>
      <point x="-326" y="424" type="line"/>
      <point x="-191" y="424" type="line"/>
      <point x="-191" y="352" type="line"/>
      <point x="-158" y="402"/>
      <point x="-109" y="434"/>
      <point x="-64" y="434" type="curve" smooth="yes"/>
      <point x="23" y="434"/>
      <point x="68" y="378"/>
      <point x="68" y="281" type="curve" smooth="yes"/>
      <point x="68" y="39" type="line"/>
      <point x="-67" y="39" type="line"/>
      <point x="-67" y="251" type="line" smooth="yes"/>
      <point x="-67" y="309"/>
      <point x="-86" y="329"/>
      <point x="-114" y="329" type="curve" smooth="yes"/>
      <point x="-143" y="329"/>
      <point x="-172" y="307"/>
      <point x="-191" y="279" type="curve"/>
      <point x="-191" y="39" type="line"/>
    </contour>
  </outline>
</glyph>
<glyph name="p" format="1">
  <advance width="499"/>
  <unicode hex="0070"/>
  <outline>
    <contour>
      <point x="-326" y="424" type="line"/>
      <point x="-191" y="424" type="line"/>
      <point x="-191" y="382" type="line"/>
      <point x="-160" y="414"/>
      <point x="-119" y="434"/>
      <point x="-74" y="434" type="curve" smooth="yes"/>
      <point x="33" y="434"/>
      <point x="98" y="349"/>
      <point x="98" y="232" type="curve" smooth="yes"/>
      <point x="98" y="115"/>
      <point x="33" y="29"/>
      <point x="-74" y="29" type="curve" smooth="yes"/>
      <point x="-119" y="29"/>
      <point x="-160" y="47"/>
      <point x="-191" y="78" type="curve"/>
      <point x="-191" y="-106" type="line"/>
      <point x="-326" y="-106" type="line"/>
    </contour>
    <contour>
      <point x="-191" y="173" type="line"/>
      <point x="-172" y="149"/>
      <point x="-143" y="134"/>
      <point x="-114" y="134" type="curve" smooth="yes"/>
      <point x="-66" y="134"/>
      <point x="-37" y="174"/>
      <point x="-37" y="232" type="curve" smooth="yes"/>
      <point x="-37" y="290"/>
      <point x="-66" y="329"/>
      <point x="-114" y="329" type="curve" smooth="yes"/>
      <point x="-143" y="329"/>
      <point x="-172" y="315"/>
      <point x="-191" y="291" type="curve"/>
    </contour>
  </outline>
</glyph>
<glyph name="s" format="1">
  <advance width="374"/>
  <unicode hex="0073"/>
  <outline>
    <contour>
      <point x="-152" y="151" type="curve" smooth="yes"/>
      <point x="-152" y="201"/>
      <point x="-320" y="197"/>
      <point x="-320" y="317" type="curve" smooth="yes"/>
      <point x="-320" y="414"/>
      <point x="-245" y="439"/>
      <point x="-168" y="439" type="curve" smooth="yes"/>
      <point x="-131" y="439"/>
      <point x="-81" y="424"/>
      <point x="-31" y="377" type="curve"/>
      <point x="-71" y="287" type="line"/>
      <point x="-111" y="325"/>
      <point x="-139" y="339"/>
      <point x="-157" y="339" type="curve" smooth="yes"/>
      <point x="-175" y="339"/>
      <point x="-185" y="330"/>
      <point x="-185" y="317" type="curve" smooth="yes"/>
      <point x="-185" y="267"/>
      <point x="-17" y="265"/>
      <point x="-17" y="161" type="curve" smooth="yes"/>
      <point x="-17" y="64"/>
      <point x="-102" y="24"/>
      <point x="-179" y="24" type="curve" smooth="yes"/>
      <point x="-246" y="24"/>
      <point x="-296" y="39"/>
      <point x="-346" y="86" type="curve"/>
      <point x="-306" y="176" type="line"/>
      <point x="-266" y="138"/>
      <point x="-217" y="124"/>
      <point x="-199" y="124" type="curve" smooth="yes"/>
      <point x="-171" y="124"/>
      <point x="-152" y="130"/>
    </contour>
  </outline>
</glyph>
<glyph name="t" format="1">
  <advance width="325"/>
  <unicode hex="0074"/>
  <outline>
    <contour>
      <point x="-346" y="324" type="line"/>
      <point x="-346" y="424" type="line"/>
      <point x="-276" y="424" type="line"/>
      <point x="-276" y="489" type="line"/>
      <point x="-141" y="549" type="line"/>
      <point x="-141" y="424" type="line"/>
      <point x="-61" y="424" type="line"/>
      <point x="-61" y="324" type="line"/>
      <point x="-141" y="324" type="line"/>
      <point x="-141" y="39" type="line"/>
      <point x="-276" y="39" type="line"/>
      <point x="-276" y="324" type="line"/>
    </contour>
  </outline>
</glyph>
<glyph name="v" format="1">
  <advance width="465"/>
  <unicode hex="0076"/>
  <outline>
    <contour>
      <point x="-206" y="39" type="line"/>
      <point x="-356" y="424" type="line"/>
      <point x="-211" y="424" type="line"/>
      <point x="-130" y="140" type="line"/>
      <point x="-56" y="424" type="line"/>
      <point x="89" y="424" type="line"/>
      <point x="-51" y="39" type="line"/>
    </contour>
  </outline>
</glyph>
<glyph name="x" format="1">
  <advance width="465"/>
  <unicode hex="0078"/>
  <outline>
    <contour>
      <point x="-134" y="337" type="line"/>
      <point x="-66" y="424" type="line"/>
      <point x="89" y="424" type="line"/>
      <point x="-56" y="238" type="line"/>
      <point x="99" y="39" type="line"/>
      <point x="-56" y="39" type="line"/>
      <point x="-134" y="138" type="line"/>
      <point x="-211" y="39" type="line"/>
      <point x="-366" y="39" type="line"/>
      <point x="-211" y="238" type="line"/>
      <point x="-356" y="424" type="line"/>
      <point x="-201" y="424" type="line"/>
    </contour>
  </outline>
</glyph>
<glyph name="y" format="1">
  <advance width="470"/>
  <unicode hex="0079"/>
  <outline>
    <contour>
      <point x="-186" y="70" type="line"/>
      <point x="-356" y="424" type="line"/>
      <point x="-201" y="424" type="line"/>
      <point x="-127" y="221" type="line"/>
      <point x="-46" y="424" type="line"/>
      <point x="94" y="424" type="line"/>
      <point x="-126" y="-106" type="line"/>
      <point x="-256" y="-106" type="line"/>
    </contour>
  </outline>
</glyph>
